<svg width="20" height="19" viewBox="0 0 20 19" fill="none" xmlns="http://www.w3.org/2000/svg">
<path d="M12.4069 10.1253L5.67769 3.39617C5.52727 3.24575 5.32144 3.16659 5.11561 3.16659C4.90977 3.16659 4.71186 3.24575 4.56144 3.39617L2.31311 5.6445C2.00436 5.95325 2.00436 6.45992 2.31311 6.76867L9.04227 13.4978C9.20061 13.6562 9.39852 13.7274 9.60436 13.7274C9.81019 13.7274 10.0081 13.6483 10.1664 13.4978L12.4069 11.2574C12.7156 10.9408 12.7156 10.4341 12.4069 10.1253ZM9.60436 11.8116L3.99144 6.19867L5.11561 5.0745L10.7285 10.6874L9.60436 11.8116ZM11.8535 14.0568L12.9729 12.9373L16.3319 16.2964L15.2125 17.4158L11.8535 14.0568ZM15.146 1.58325C13.6181 1.58325 12.3752 2.82617 12.3752 4.35409C12.3752 5.882 13.6181 7.12492 15.146 7.12492C16.6739 7.12492 17.9169 5.882 17.9169 4.35409C17.9169 2.82617 16.6739 1.58325 15.146 1.58325ZM15.146 5.54158C14.4889 5.54158 13.9585 5.01117 13.9585 4.35409C13.9585 3.697 14.4889 3.16659 15.146 3.16659C15.8031 3.16659 16.3335 3.697 16.3335 4.35409C16.3335 5.01117 15.8031 5.54158 15.146 5.54158Z" fill="#5C6E93"/>
</svg>
