<svg width="17" height="17" viewBox="0 0 17 17" fill="none" xmlns="http://www.w3.org/2000/svg">
<path fill-rule="evenodd" clip-rule="evenodd" d="M4.22132 16.735L14.3429 16.735C15.2707 16.735 16.0298 16.0665 16.0298 15.2495L16.0298 4.85104L14.3429 4.85104L14.3429 15.2495L4.22132 15.2495L4.22132 16.735ZM1.69094 13.764L10.969 13.764C11.8968 13.764 12.6559 13.0955 12.6559 12.2785L12.6559 1.88006C12.6559 1.06304 11.8968 0.394567 10.969 0.394567L1.69094 0.394566C0.763134 0.394566 0.00401843 1.06304 0.00401835 1.88006L0.00401732 12.2785C0.00401724 13.0955 0.763132 13.764 1.69094 13.764ZM10.969 1.88006L1.69094 1.88006L1.69094 12.2785L10.969 12.2785L10.969 1.88006Z" fill="#39495A"/>
</svg>
